<?xml version="1.0" encoding="UTF-8"?>
<!DOCTYPE svg PUBLIC "-//W3C//DTD SVG 1.1//EN" "http://www.w3.org/Graphics/SVG/1.1/DTD/svg11.dtd">
<svg xmlns="http://www.w3.org/2000/svg" version="1.1" width="192px" height="192px" style="shape-rendering:geometricPrecision; text-rendering:geometricPrecision; image-rendering:optimizeQuality; fill-rule:evenodd; clip-rule:evenodd" xmlns:xlink="http://www.w3.org/1999/xlink">
<g><path fill="#1a1a1a" fill-opacity="0.996" stroke="#1a1a1a" stroke-width="0.5" stroke-opacity="0.996" d="M 96.59,27.09 c 0.72,3.25 0.74,6.49 0.06,9.73 c -2.98,7.16 -7.76,9.35 -15.17,8.02 c -0.4,0.1 -0.73,0.31 -0.99,0.63 c -1.18,-1.37 -2.59,-2.47 -4.21,-3.27 c -0.67,-2.43 -1.55,-4.79 -2.66,-7.06 c -2.15,-4.5 -7.4,-14.41 -7.82,-19.37 c 0.19,-1.13 0.72,-2.08 1.59,-2.86 c 6.3,-3.08 12.69,-5.99 19.17,-8.73 c 1.79,-0.11 3.56,-0.28 5.33,-0.52 c 1.21,1.45 2.58,1.75 2.88,3.88 c 0.67,6.51 1.28,13.03 1.82,19.55 Z M 80.52,36.16 c 4.13,6.69 11.47,2.82 11.32,-4.2 c -1.02,-6.67 -2.16,-13.31 -3.44,-19.92 c -0.43,-0.58 -1.01,-0.84 -1.73,-0.76 c -4.18,1.29 -8.27,2.83 -12.25,4.63 c -0.5,0.33 -0.77,0.79 -0.79,1.39 c 1.61,6.53 3.91,12.82 6.89,18.86 Z M 23.04,163 c -0.13,-2.9 3.27,-3.9 5.25,-5.2 c 0.8,-0.82 1.62,-1.61 2.47,-2.36 c -2.16,-5.65 -4.36,-11.9 -4.76,-17.93 c -0.02,-26.34 -0.01,-52.68 0.04,-79.02 c 2.71,-11.08 0.26,-29.19 8.06,-37.9 c 8.98,-7.83 15.31,1.77 21.67,7.21 c 1,1.45 2.4,4.58 4.65,3.2 c 0.7,-0.63 1.48,-1.05 2.34,-1.25 c 2.92,2.42 3.23,3.13 0.79,6.16 c 0.03,1.35 0.69,2.28 1.97,2.8 c 1.99,0.2 2.52,-3.12 4.72,-1.39 c 1.58,2.55 1.83,3.65 -0.84,5.54 c -0.26,0.43 -0.3,0.88 -0.1,1.35 c 5.21,6.54 10.49,14.55 16.24,20.6 c 5.8,-0.5 4.7,-1.35 5.76,-6.14 c 5.02,-11.62 10.91,-40.11 26.36,-41.09 c 7.52,1.13 12.89,10.94 17.65,15.63 c 1.68,3.07 3.45,6.08 5.3,9.03 c 0.55,0.24 1.07,0.17 1.55,-0.2 c 1.66,-1.7 6.75,-5.73 6.85,-0.54 c -0.09,3.13 -4.64,4.84 -4.65,6.99 c 5.67,10.4 14.48,27.53 16.8,38.62 c 8.96,22.71 10.11,47.48 0.38,70.17 c -1.05,2.19 -2.24,4.31 -3.57,6.33 c -0.44,1.38 3.36,4.55 3.94,5.85 c 0.08,1.11 0.16,2.2 0.25,3.26 c -1.32,0.23 -2.63,0.41 -3.93,0.53 c -1.06,-0.53 -3.01,-4.05 -4.42,-3 c -8.22,11.14 -14.67,12.41 -27.3,16.75 c -3.39,-0.22 -6.73,0.11 -10.01,0.99 c -5.03,-0.06 -10.07,0.03 -15.09,0.27 c -16.36,-1.98 -35.69,4.16 -49.69,-6.65 c -4.32,-3.69 -8.41,-7.61 -12.27,-11.75 c -1.62,0.08 -2.8,0.88 -3.55,2.38 c -1.47,0.99 -2.9,2.05 -4.28,3.16 c -0.4,-0.01 -0.72,-0.18 -0.96,-0.51 c -0.39,-1.36 -1.12,-2.49 -2.2,-3.39 c 2.3,-2.19 4.66,-4.32 7.1,-6.39 c 1.13,-1.56 -1.1,-3.76 -2.66,-3.88 c -1.91,1.05 -3.76,2.21 -5.54,3.48 c -1.89,0.5 -4.06,0.78 -4.32,-1.71 Z M 97.92,74.78 c -21.34,5.14 -22.83,-9.78 -34.67,-21.53 c -5.44,-8.25 -13.08,-15.53 -18.53,-23.44 c -2.26,-1.38 -5.01,1.74 -5.5,3.8 c -3.27,25.1 -2.63,53 -1.88,78.3 c 0.2,7.7 -1.01,25.85 1.29,32.21 c 4.78,25.16 27,33.63 49.85,35.09 c 25.89,-0.58 48.69,1.85 62.05,-25.03 c 16.85,-26.93 -1.96,-62.4 -11.13,-88.96 c -6.53,-12.76 -13.68,-25.16 -21.47,-37.2 c -0.75,-0.89 -1.51,-0.9 -2.27,-0.03 c -6.92,14.8 -11.35,29.59 -15.93,45.23 c -0.48,0.66 -1.08,1.18 -1.81,1.56 Z"/></g>
<g><path fill="#5a5a5a" stroke="#5a5a5a" stroke-width="0.5" d="M 117.93,28.02 c 7.79,12.04 14.94,24.44 21.47,37.2 c 9.17,26.56 27.98,62.03 11.13,88.96 c -3.53,1.6 -7.42,4 -10.18,6.57 c -26.55,13.24 -81.46,9.3 -100.55,-16.07 c -0.32,-0.34 -0.71,-0.52 -1.17,-0.56 c -2.3,-6.36 -1.09,-24.51 -1.29,-32.21 c -0.75,-25.3 -1.39,-53.2 1.88,-78.3 c 0.49,-2.06 3.24,-5.18 5.5,-3.8 c 5.45,7.91 13.09,15.19 18.53,23.44 c 11.84,11.75 13.33,26.67 34.67,21.53 c 2.24,0.03 4.46,-0.16 6.66,-0.55 c 2.11,0.12 8.24,1.27 9.8,-0.25 c 2.12,-12.7 1.84,-27.31 2.28,-40.29 c 0.38,-1.11 -0.06,-5.4 1.27,-5.67 Z M 111.68,91 c 0.43,3.03 1.1,6.01 2.03,8.93 c 4.46,6.7 22.74,7.84 29.65,5.79 c 9.05,-6.84 0.11,-12.14 -1.78,-18.38 c -0.59,0.23 -1.16,0.2 -1.71,-0.08 c -5.45,-5.52 -13.96,-7.4 -21.33,-8.78 c -1.27,0.92 -2.62,1.73 -4.06,2.42 c -3.3,2.82 -2.55,6.27 -2.8,10.1 Z M 50.5,105 c 2.06,10.53 11.32,9.62 19.1,5.41 c 0.58,0.37 1.2,0.6 1.86,0.7 c 0.86,-0.49 1.62,-1.11 2.29,-1.85 c 6.01,-0.98 19.63,-2.43 20.53,-10.33 c -0.06,-19.01 -11.95,-14.81 -23.67,-16.43 c -0.48,0.71 -0.95,1.44 -1.41,2.18 c -0.91,0.24 -1.83,0.44 -2.76,0.6 c -1.7,-0.56 -2.62,0.07 -2.76,1.9 c -1.48,1.17 -2.65,-0.13 -3.26,2.25 c -0.5,-0.31 -0.97,-0.29 -1.41,0.05 c -3.66,5.31 -7.05,9.03 -8.51,15.52 Z M 120.8,126 c 0.28,1.7 0.51,3.4 0.68,5.1 c 3.18,2.38 6.36,3.68 10.27,1.97 c 1.87,-1.64 3.44,-3.52 4.72,-5.63 c -1.29,-6.69 -3.07,-8.03 -9.17,-10.27 c -1.35,-0.2 -4.18,2.39 -4.97,3.49 c -1.03,1.62 -1.54,3.4 -1.53,5.34 Z M 71.83,130 c 0.33,2.7 2.48,4.19 4.03,6.21 c 1.61,0.15 3.16,0.55 4.64,1.22 c 8.23,-2.37 9.75,-13.3 2.46,-17.53 c -0.94,-0.81 -4.95,0.43 -6.26,0.34 c -1.06,1.28 -2.15,2.54 -3.28,3.78 c -0.85,1.91 -1.38,3.9 -1.59,5.98 Z M 81.68,152 c 0.15,1.25 0.59,2.38 1.34,3.39 c 8.79,3.21 13.63,11.83 23.43,2.53 c 1.98,-1.72 3.71,-3.64 5.21,-5.75 c 1.99,-0.27 6.17,9.29 13.64,7.45 c 4.3,-1.74 10.15,-0.88 10.32,-7.09 c -1.24,-1.76 -2.92,-2.55 -5.02,-2.36 c -1.68,0.35 -2.32,4.18 -3.69,5.18 c -6.7,2.64 -10.42,-1.94 -13.85,-6.88 c -1.24,-0.67 -2.29,-0.41 -3.14,0.75 c -3.45,4.49 -7,9.86 -13.39,9.65 c -8.02,-0.72 -5.68,-6.32 -9.53,-10.21 c -2.77,-1.34 -4.62,0.86 -5.32,3.34 Z"/></g>
<g><path fill="#494952" stroke="#494952" stroke-width="0.5" d="M 117.93,28.02 c -1.33,0.27 -0.89,4.56 -1.27,5.67 c -0.44,12.98 -0.16,27.59 -2.28,40.29 c -1.56,1.52 -7.69,0.37 -9.8,0.25 c -2.2,0.39 -4.42,0.58 -6.66,0.55 c 0.73,-0.38 1.33,-0.9 1.81,-1.56 c 4.58,-15.64 9.01,-30.43 15.93,-45.23 c 0.76,-0.87 1.52,-0.86 2.27,0.03 Z M 38.63,144.12 c 0.46,0.04 0.85,0.22 1.17,0.56 c 19.09,25.37 74,29.31 100.55,16.07 c 2.76,-2.57 6.65,-4.97 10.18,-6.57 c -13.36,26.88 -36.16,24.45 -62.05,25.03 c -22.85,-1.46 -45.07,-9.93 -49.85,-35.09 Z"/></g>
<g><path fill="#262626" stroke="#262626" stroke-width="0.5" d="M 111.68,91 c 0.25,-3.83 -0.5,-7.28 2.8,-10.1 c 1.44,-0.69 2.79,-1.5 4.06,-2.42 c 7.37,1.38 15.88,3.26 21.33,8.78 c 0.55,0.28 1.12,0.31 1.71,0.08 c 1.89,6.24 10.83,11.54 1.78,18.38 c -6.91,2.05 -25.19,0.91 -29.65,-5.79 c -0.93,-2.92 -1.6,-5.9 -2.03,-8.93 Z M 50.5,105 c 1.46,-6.49 4.85,-10.21 8.51,-15.52 c 0.44,-0.34 0.91,-0.36 1.41,-0.05 c 0.61,-2.38 1.78,-1.08 3.26,-2.25 c 0.14,-1.83 1.06,-2.46 2.76,-1.9 c 0.93,-0.16 1.85,-0.36 2.76,-0.6 c 0.46,-0.74 0.93,-1.47 1.41,-2.18 c 11.72,1.62 23.61,-2.58 23.67,16.43 c -0.9,7.9 -14.52,9.35 -20.53,10.33 c -0.67,0.74 -1.43,1.36 -2.29,1.85 c -0.66,-0.1 -1.28,-0.33 -1.86,-0.7 c -7.78,4.21 -17.04,5.12 -19.1,-5.41 Z M 120.8,126 c -0.01,-1.94 0.5,-3.72 1.53,-5.34 c 0.79,-1.1 3.62,-3.69 4.97,-3.49 c 6.1,2.24 7.88,3.58 9.17,10.27 c -1.28,2.11 -2.85,3.99 -4.72,5.63 c -3.91,1.71 -7.09,0.41 -10.27,-1.97 c -0.17,-1.7 -0.4,-3.4 -0.68,-5.1 Z M 71.83,130 c 0.21,-2.08 0.74,-4.07 1.59,-5.98 c 1.13,-1.24 2.22,-2.5 3.28,-3.78 c 1.31,0.09 5.32,-1.15 6.26,-0.34 c 7.29,4.23 5.77,15.16 -2.46,17.53 c -1.48,-0.67 -3.03,-1.07 -4.64,-1.22 c -1.55,-2.02 -3.7,-3.51 -4.03,-6.21 Z M 81.68,152 c 0.7,-2.48 2.55,-4.68 5.32,-3.34 c 3.85,3.89 1.51,9.49 9.53,10.21 c 6.39,0.21 9.94,-5.16 13.39,-9.65 c 0.85,-1.16 1.9,-1.42 3.14,-0.75 c 3.43,4.94 7.15,9.52 13.85,6.88 c 1.37,-1 2.01,-4.83 3.69,-5.18 c 2.1,-0.19 3.78,0.6 5.02,2.36 c -0.17,6.21 -6.02,5.35 -10.32,7.09 c -7.47,1.84 -11.65,-7.72 -13.64,-7.45 c -1.5,2.11 -3.23,4.03 -5.21,5.75 c -9.8,9.3 -14.64,0.68 -23.43,-2.53 c -0.75,-1.01 -1.19,-2.14 -1.34,-3.39 Z"/></g>
<g><path fill="#1a1a1a" fill-opacity="0.039" stroke="#1a1a1a" stroke-width="0.5" stroke-opacity="0.039" d="M 96.59,27.09 c 0.54,-0.14 0.98,0.01 1.31,0.45 c 0.41,1.94 0.2,6.75 -0.05,8.9 c -0.29,0.47 -0.69,0.59 -1.2,0.38 c 0.68,-3.24 0.66,-6.48 -0.06,-9.73 Z"/></g>
<g><path fill="#a40001" stroke="#a40001" stroke-width="0.5" d="M 91.84,31.96 c -1.47,2.17 -8.92,3.9 -11.32,4.2 c -2.98,-6.04 -5.28,-12.33 -6.89,-18.86 c 0.02,-0.6 0.29,-1.06 0.79,-1.39 c 3.98,-1.8 8.07,-3.34 12.25,-4.63 c 0.72,-0.08 1.3,0.18 1.73,0.76 c 1.28,6.61 2.42,13.25 3.44,19.92 Z"/></g>
<g><path fill="#7d0000" d="M 91.84,31.96 c 0.15,7.02 -7.19,10.89 -11.32,4.2 c 2.4,-0.3 9.85,-2.03 11.32,-4.2 Z"/></g>
</svg>
